<svg width="1085" height="192" viewBox="0 0 1085 192" fill="none" xmlns="http://www.w3.org/2000/svg">
<path d="M899.667 2.53334C891.667 4.80001 883.4 9.06667 877.8 14.1333C867.933 22.6667 862.467 42.6667 865.133 59.4667C868.067 77.6 874.067 85.3334 899.4 102.8C933.533 126.4 937 129.867 937 140.4C937 152.8 928.6 160.667 915.533 160.667C903.267 160.667 895.533 152.533 893.533 137.6L892.6 130.933L884.6 131.867C880.2 132.267 873 132.667 868.467 132.667C857 132.667 856.867 132.933 859.133 144C863 162.4 870.2 174 882.6 182C899.533 193.067 928.2 194.533 946.333 185.333C954.733 181.067 964.2 170.8 968.6 161.333C971.8 154.267 972.333 151.733 972.333 140C972.333 128.133 971.933 125.733 968.6 118.8C961.533 103.6 955.8 98.5334 920.6 77.3334C903.4 66.8 899.533 62.6667 898.6 54.2667C897.533 42.1333 902.733 33.3333 912.067 31.7333C923.667 29.8667 932.333 34.9333 938.2 47.2C942.333 55.8667 943.267 56.2667 961.4 56.5334C971.667 56.6667 973 56.4 973 54.2667C973 50.4 967.8 32.8 965.133 27.4667C958.867 15.4667 947.133 6.40001 932.467 2.53334C924.2 0.266673 907.8 0.266673 899.667 2.53334Z" fill="black"/>
<path d="M153 3.20012L144.333 4.00012L140.2 22.0001C137.933 31.8668 132.333 55.6001 127.8 74.5335C119.933 107.6 101 188.667 101 189.6C101 189.867 108.2 190 117 190C135.533 190 133.8 191.467 138.467 172.667C141.667 159.733 144.333 152.533 146.733 151.067C148.867 149.733 182.467 149.733 184.6 151.067C186.067 152 188.6 160.267 194.6 182.667C196.067 188.133 196.867 189.333 199.4 189.2C201 189.2 208.6 189.067 216.333 188.933C228.067 188.667 230.333 188.267 230.333 186.533C230.333 181.733 187.267 3.86679 185.8 3.06679C184.2 1.86679 166.333 2.00012 153 3.20012ZM167.8 56.8001C168.6 58.4001 171.533 72.2668 174.467 87.7335C178.2 108.4 179.133 116.267 178.067 117.6C177.133 118.8 173.267 119.333 166.333 119.333C153.667 119.333 151.667 118.667 151.667 114.4C151.667 107.6 164.2 54.0001 165.8 54.0001C166.067 54.0001 166.867 55.2001 167.8 56.8001Z" fill="black"/>
<path d="M315.133 4.93332C314.733 6.66666 310.2 28.9333 305.133 54.6667C291.4 123.733 288.6 136.8 287.667 135.6C287.133 135.067 282.067 113.067 276.333 86.6667C270.733 60.2667 264.067 30.8 261.8 21.3333L257.533 3.99999L241.267 3.59999C232.333 3.46666 225 3.59999 225 3.99999C225 5.19999 240.2 73.2 252.333 126C258.6 153.467 264.467 179.2 265.267 182.933L266.733 190H287.133C298.333 190 307.8 189.467 308.2 188.8C308.867 187.867 313.533 166.8 324.333 117.333C326.2 108.533 331.4 84 335.8 62.6667C340.2 41.4667 345 19.4667 346.333 13.8667C347.8 8.13332 349 3.19999 349 2.79999C349 2.39999 341.533 1.99999 332.333 1.99999C316.2 1.99999 315.667 2.13332 315.133 4.93332Z" fill="black"/>
<path d="M397.667 2.93332C392.6 3.19999 387.933 3.86666 387.4 4.39999C387 4.93333 383.8 17.6 380.467 32.6667C377.133 47.7333 372.6 67.4667 370.467 76.6667C364.6 101.067 345 187.467 345 188.8C345 189.467 352.2 190 361 190C374.867 190 377 189.733 378.067 187.6C378.733 186.4 380.733 179.2 382.333 171.733C384.067 164.133 386.467 156.267 387.8 154L390.333 150H408.067C420.2 150 426.467 150.533 428.067 151.6C429.4 152.667 431.933 160.533 434.733 171.333L439.133 189.333H444.733C447.8 189.2 455.8 189.067 462.467 188.933L474.6 188.667L473.667 184.267C473.133 182 464.733 146.133 454.867 104.667C445 63.2 435.533 23.7333 434.067 16.9333C431.533 6.26665 430.6 4.26666 427.933 3.2C425 2 417.4 1.99999 397.667 2.93332ZM417.667 87.4667C420.467 102.533 422.333 116 421.933 117.2C421.267 118.933 419.133 119.333 410.467 119.333C397 119.333 395.667 118.8 395.667 113.333C395.667 108.133 405.8 62 407.933 57.2L409.533 53.8667L411.133 56.9333C411.933 58.6667 415 72.4 417.667 87.4667Z" fill="black"/>
<path d="M559.8 8.93332C559.133 12.8 555.4 31.8667 551.667 51.3333C542.2 100.8 534.067 137.067 532.867 135.067C532.333 134.133 529.8 123.467 527.133 111.333C521.667 86.5333 505.533 16 503.533 8.26666L502.2 3.33332H485.8H469.267L471.133 10.9333C472.067 15.2 476.2 33.3333 480.2 51.3333C486.2 78.2667 499.267 135.2 509.933 180.933L511.933 190H533C551.933 190 554.2 189.733 554.867 187.6C555.8 184.4 576.733 88.5333 586.333 43.3333C590.733 22.4 594.6 4.53332 595 3.59999C595.4 2.39999 591.533 1.99999 578.333 1.99999H561.133L559.8 8.93332Z" fill="black"/>
<path d="M619 4.93349C618.6 6.66682 618.467 48.8002 618.6 98.6668L619 189.333H663H707L707.4 174.8C707.667 164.667 707.267 159.733 706.067 158.4C704.6 156.667 701.267 156.4 684.333 156.933C657.8 157.733 653.667 157.333 651.8 153.2C649.667 148.4 649.8 116 652.067 114.267C653.267 113.2 673.667 111.867 694.733 111.333C696.733 111.333 697 109.867 697 99.4668C697 92.9335 696.6 85.7335 696.2 83.4668L695.4 79.3335H676.467C666.2 79.3335 656.333 78.9335 654.733 78.5335C651.667 77.7335 651.667 77.3335 651.667 57.8668C651.667 44.5335 652.2 37.8668 653.133 37.2002C654.067 36.6668 663.8 36.1335 674.867 36.0002C685.933 35.8668 696.6 35.7335 698.733 35.6002L702.333 35.3335V18.6668V2.00015H661H619.667L619 4.93349Z" fill="black"/>
<path d="M732.6 2.93349C732.2 3.60015 731.933 45.7335 732.067 96.6668L732.333 189.333H749H765.667L766.067 156.4L766.333 123.333L769.533 122.533C771.267 122.133 774.333 122 776.467 122.267C780.2 122.667 780.733 123.867 793.133 156L805.8 189.333L821.133 188.933C829.533 188.667 838.2 188.133 840.6 187.733C844.733 187.067 844.867 186.933 843.133 183.467C842.067 181.6 834.867 165.467 827.133 147.6L812.867 115.067L818.733 110C829.4 100.533 836.2 82.0002 835.933 62.9335C835.533 34.0002 824.333 13.8668 803.933 5.86682C797 3.06682 793.667 2.80015 764.867 2.26682C747.4 2.00015 733 2.26682 732.6 2.93349ZM792.733 37.6002C798.6 40.4002 800.733 44.0002 802.6 53.8668C803.8 59.8668 803.8 64.5335 802.733 71.4668C800.333 86.5335 793.933 91.3335 776.067 91.3335C767.933 91.3335 767.933 91.3335 766.867 86.9335C765.8 82.2668 765.133 36.6668 766.067 34.8002C767 33.0668 787.667 35.2002 792.733 37.6002Z" fill="black"/>
<path d="M998.067 94.2668C997.8 145.067 997.933 187.067 998.333 187.467C998.733 188 1018.2 188.533 1041.67 188.8L1084.33 189.333V173.333V157.333L1059.53 156.667C1041.27 156.133 1034.2 155.467 1032.6 154.133C1030.73 152.667 1030.33 149.333 1030.33 133.2V114L1033.8 112.667C1035.67 111.867 1045.53 111.333 1055.8 111.333C1071.27 111.333 1074.6 110.933 1075.13 109.333C1075.67 108.133 1075.53 100.933 1075 93.3335L1074.07 79.3335H1055.27C1044.87 79.3335 1035 78.9335 1033.4 78.5335C1030.33 77.7335 1030.33 77.3335 1030.33 56.5335V35.3335H1056.33H1082.33V30.9335C1082.33 28.4002 1081.93 20.9335 1081.53 14.2668L1080.6 2.00015H1039.53H998.333L998.067 94.2668Z" fill="black"/>
<path d="M0.466657 4.53313C-0.60001 6.13313 0.733324 187.2 1.66666 188.8C2.86666 190.666 81.4 190.4 83.4 188.4C85.4 186.4 83.9333 159.2 81.8 157.733C81 157.2 70.8667 156.666 59.4 156.666C39.9333 156.666 38.0667 156.4 35.6667 154C32.8667 151.2 32.8667 150.266 33.2667 77.9998C33.5333 17.8665 33.4 4.53313 31.9333 3.99979C28.7333 2.79979 1.13332 3.33313 0.466657 4.53313Z" fill="black"/>
</svg>
