<svg width="941" height="636" viewBox="0 0 941 636" fill="none" xmlns="http://www.w3.org/2000/svg">
<path d="M441.667 0.800162C366.467 9.86683 308.333 37.0668 256.467 87.3335C227.267 115.734 207.8 142.4 189.667 179.334C173.533 212.134 163.8 243.334 160.2 274.4L158.467 289.2L147.8 294.934C122.067 308.8 88.2 333.2 65 354.934C41.8 376.534 16.8667 409.6 8.33332 430.134C1.93332 445.467 -0.0666812 456.134 0.599985 471.467C1.39999 489.6 5.66665 499.067 19.4 512.667C43.4 536.667 86.2 552 144.733 557.467C165.8 559.334 225.267 558.267 246.333 555.467C259.8 553.734 261.267 553.734 263.933 555.734C265.533 556.934 271.8 562 277.933 566.934C315.133 596.534 361.933 618.934 406.333 628.4C431.8 633.734 445.933 635.2 473.667 635.2C541.933 635.067 605.133 614.267 659 574.134C674.2 562.8 698.733 539.334 710.6 524.667C741.133 486.934 762.467 441.334 772.2 393.067L775.933 374.134L781.8 370.134C815.533 347.334 851.667 317.6 879 290.4C908.333 261.334 927.267 233.734 936.467 207.067C940.6 195.067 940.867 192.667 941 177.867V161.734L935.4 150.4C922.467 124.4 893 107.734 846.733 100.4C824.2 96.8002 753.8 97.2002 723 100.934L701.133 103.734L685.667 88.9335C645 49.7335 602.6 25.6002 546.6 9.86683C523.4 3.3335 505.8 1.06683 475 0.666829C459.267 0.400162 444.2 0.533496 441.667 0.800162ZM539.933 32.8002C539.533 33.2002 538.333 33.3335 537.4 32.9335C536.333 32.5335 536.733 32.1335 538.2 32.1335C539.667 32.0002 540.467 32.4002 539.933 32.8002ZM555.933 38.1335C555.533 38.5335 554.333 38.6668 553.4 38.2668C552.333 37.8668 552.733 37.4668 554.2 37.4668C555.667 37.3335 556.467 37.7335 555.933 38.1335ZM549.533 41.6002C554.2 41.7335 554.2 41.8668 552.333 45.3335C551.4 46.9335 550.2 47.6002 548.733 47.0668C547 46.4002 546.733 46.6668 547.667 48.8002C548.2 50.1335 548.733 52.9335 549 54.8002C549.133 56.6668 549.667 58.8002 550.067 59.6002C550.6 60.4002 550.067 63.2002 548.867 66.0002L546.867 70.9335L551.667 67.0668C554.2 65.0668 556.333 62.8002 556.333 62.2668C556.333 61.6002 556.867 61.4668 557.667 62.0002C558.333 62.4002 558.467 63.7335 558.067 64.9335C557.4 66.5335 557.8 66.9335 559.4 66.2668C563.267 64.8002 563.8 70.6668 560.2 73.4668C558.467 74.8002 556.333 76.0002 555.4 76.0002C554.467 76.0002 552.6 78.5335 551.267 81.6002C547.267 90.4002 525.267 111.867 514.867 116.934C495.533 126.534 486.067 129.6 469.667 131.467C456.2 132.934 432.467 137.067 430.733 138.267C430.067 138.534 429.667 138.267 429.667 137.6C429.667 136.8 433.533 135.467 438.333 134.534C447.667 132.667 450.467 129.867 441.667 131.067C438.733 131.467 435.933 131.2 435.533 130.4C435 129.734 432.733 129.467 430.067 130L425.533 130.8L427.667 126.8C429 124.134 429.133 122.667 428.333 122.667C427.4 122.667 427.667 121.734 428.867 120.667C431.667 117.734 433.533 118.267 432.733 121.6C432.2 124.134 432.333 124.267 433.533 122.667C434.333 121.6 435 119.467 435 117.867C435 116.267 436.467 114.4 438.333 113.334C440.2 112.4 441.667 110.934 441.667 110.134C441.8 108.267 446.733 104.667 451 103.334C452.867 102.8 455.4 101.334 456.867 100.134C458.2 98.9335 459.4 98.1335 459.533 98.4002C459.533 98.6668 460.6 98.5335 461.667 98.1335C471.267 94.6668 471.267 94.6668 469.667 92.6668C468.733 91.6002 467.133 90.6668 466.067 90.6668C465 90.6668 464.6 90.0002 465.133 89.2002C465.667 88.1335 465.133 88.0002 463.133 88.6668C459.667 89.7335 459.267 86.5335 462.467 83.4668C463.533 82.2668 464.067 81.3335 463.533 81.3335C463.133 81.3335 463.4 80.4002 464.333 79.3335C465.267 78.2668 466.867 77.3335 468.067 77.3335C470.733 77.3335 486.6 69.8668 487.667 68.0002C488.467 66.8002 493.8 63.8668 496.333 63.4668C496.733 63.3335 497.8 62.8002 498.867 62.1335C499.933 61.4668 503.8 59.2002 507.533 57.2002C512.2 54.8002 514.2 52.9335 513.933 51.3335C513.533 49.6002 514.2 49.3335 516.2 50.0002C517.8 50.4002 519 50.2668 519 49.4668C519 48.8002 520.867 47.7335 523.267 47.3335C525.533 46.8002 528.333 45.4668 529.4 44.5335C530.333 43.4668 532.067 42.6668 533.133 42.6668C534.333 42.6668 534.733 42.0002 534.2 41.2002C533.667 40.2668 534.2 40.0002 535.8 40.5335C537.267 40.9335 539.267 40.6668 540.333 40.0002C541.533 39.3335 542.867 39.3335 543.8 40.1335C544.733 40.9335 547.267 41.6002 549.533 41.6002ZM624.467 65.6002C638.2 75.4668 667.4 101.6 672.6 108.534C675.133 112.134 675.933 114.267 675 115.334C674.333 116.134 674.067 117.334 674.6 117.734C675 118.267 674.733 118.667 673.933 118.667C673 118.667 672.333 118.134 672.333 117.334C672.333 116.667 671.533 116.4 670.733 116.667C669.533 117.2 668.867 121.2 668.6 129.067C668.333 135.467 667.8 141.067 667.267 141.6C666.733 142.134 666.2 141.6 666.067 140.267C666.067 139.067 665.667 132.134 665.267 124.934C664.733 116.667 664.867 112.134 665.667 112.667C666.467 113.067 667 112.267 667 110.8C667 109.334 665.8 107.467 664.333 106.667C662.733 105.734 662.067 104.534 662.6 103.067C663.133 101.6 663 101.2 661.8 101.867C660.867 102.534 660.467 103.734 660.867 104.8C661.267 105.867 661.133 106.667 660.6 106.667C659.933 106.667 658.733 110.4 657.8 114.934C655.667 125.6 648.867 148 646.333 152.934C643.8 157.6 643.8 158.667 646.333 158.667C647.4 158.667 648.333 157.867 648.333 156.8C648.333 155.734 650.2 153.067 652.333 150.667C654.6 148.267 656.333 145.867 656.333 145.2C656.333 143.467 663 142.134 664.467 143.6C665.267 144.4 664.467 146 662.467 147.867L659.133 150.934L659.8 147.867C660.467 144.934 660.333 144.934 659 147.067C657.8 148.934 657.8 150 658.867 151.067C660.733 152.934 660.733 154.134 658.6 156.267C657.667 157.2 654.333 161.2 651.267 165.067C648.2 169.067 645.667 171.867 645.667 171.334C645.667 170.8 644.733 171.067 643.667 172C640.733 174.4 641.267 172.4 644.333 169.067C645.8 167.467 647 165.734 647 165.067C647 163.2 643.4 163.867 641.533 166.134C640.6 167.334 638.6 168 636.733 167.6C634.467 167.2 631.533 169.067 624.2 176.134C618.333 181.734 615.4 185.334 616.733 185.334C620.067 185.334 619.533 187.067 615.667 188.8C613.133 190 612.333 190 612.067 188.4C611.8 186.8 611.133 186.934 609 188.934C602.6 194.667 584.733 206 573.933 210.934C561.8 216.534 551.933 219.867 538.333 222.667C531.267 224.134 511 230.4 503.667 233.334C502.2 233.867 498.6 235.067 495.533 235.867C486.6 238.267 462.867 250.534 454.333 257.334C449.933 260.8 445.4 264 444.333 264.534C439.4 266.8 429.533 273.6 425.133 277.6C423.667 278.934 421.4 280 420.067 280C418.6 280 417.8 280.534 418.2 281.2C418.733 281.867 417.267 283.2 415 284.267C412.867 285.2 411 286.534 411 287.334C411 289.467 406.067 292 403.667 291.2C402.333 290.667 401.667 290.934 401.933 292.134C402.2 293.334 401.267 294 399.4 293.867C396.067 293.734 395.267 295.334 398.067 296.4C399 296.8 398.733 297.2 397.4 297.2C396.067 297.334 395 296.667 395 296C395 295.2 393.667 294.667 392.067 294.8C390.067 294.8 389.667 295.2 391 295.6C392.067 296.134 393.8 297.2 394.733 298.267C396.2 299.734 396.2 300 394.467 300C391.4 300 390.333 299.467 390.733 298.267C390.867 297.734 389.8 297.334 388.467 297.334C387 297.334 385.4 298.534 385 300C384.067 302.8 381 303.6 379.667 301.334C379.267 300.534 379.4 300 380.2 300C380.867 300 383.4 298.267 385.667 296.134C390.6 291.6 389 289.334 383.8 293.467C381.8 295.067 379.8 296 379.4 295.467C378.6 294.667 392.333 281.334 394.067 281.334C394.6 281.334 395 280.4 395 279.2C395 278.134 395.533 277.467 396.2 277.867C396.867 278.267 398.333 277.067 399.533 275.334C400.733 273.467 402.333 272.267 403 272.667C403.667 273.067 404.733 271.067 405.133 268C405.667 265.067 406.467 262.667 407.133 262.667C407.667 262.667 412.733 258.134 418.333 252.667C423.933 247.067 429.133 242.934 429.8 243.467C430.6 243.867 431.533 243.067 431.933 241.6C432.333 240.134 434.067 238.534 435.8 238.134C437.533 237.6 439 236.667 439 236C439 234.134 431.267 237.2 430.467 239.6C429.933 240.667 428.733 241.334 427.667 240.8C426.467 240.4 425.667 240.8 425.667 242C425.667 243.067 424.867 243.6 423.8 243.2C422.6 242.8 421.133 243.6 420.067 245.2C418.467 247.734 415 249.067 415 247.2C415 244.4 437.8 231.867 443.667 231.467C445.267 231.467 446.467 230.934 446.067 230.267C445.8 229.734 446.333 229.334 447.4 229.334C448.467 229.334 449.8 228.267 450.2 227.067C450.867 225.6 451.533 225.334 452.467 226.267C453.533 227.334 455.267 226.8 458.6 224.534C461.267 222.8 464.2 221.334 465.267 221.334C466.333 221.334 466.733 220.667 466.333 220C465.933 219.2 467.133 218 469.267 217.334C471.267 216.534 474.067 215.334 475.267 214.667C476.6 213.867 478.6 213.334 479.667 213.334C480.867 213.334 481.4 212.8 481 212C480.6 211.2 481.133 211.067 482.2 211.467C483.4 211.867 484.333 211.6 484.333 210.8C484.333 210 484.733 209.467 485.4 209.6C489.267 210.4 500.067 205.2 499.267 202.8C498.867 201.467 499.267 201.2 500.867 201.734C502.2 202.267 503 201.867 503 200.534C503 199.467 503.533 198.934 504.333 199.334C505 199.734 507.4 199.2 509.667 198C511.933 196.8 515 196.267 516.867 196.8C518.733 197.2 520.467 196.934 521.133 195.867C521.8 194.667 521.4 194.4 519.933 195.067C518.733 195.467 517.4 195.2 516.867 194.4C516.2 193.334 517.133 193.2 520.067 193.734C525.533 194.8 536.067 191.467 546.333 185.334C550.733 182.8 555 180.667 555.667 180.534C559.267 180.4 563 178.267 563 176.4C563 174.8 563.4 174.667 564.867 175.867C567 177.6 568.6 176.934 578.067 170.4C580.867 168.4 584.067 167.2 585.133 167.6C586.333 168 587 167.334 587 165.467C587 163.867 587.8 162.667 588.867 162.667C591.667 162.667 604.333 154.267 604.333 152.267C604.333 151.334 604.867 150.8 605.4 151.2C606.867 152.134 616.333 139.734 616.333 136.934C616.333 135.6 617.133 135.067 618.2 135.467C619.4 135.867 620.467 135.067 621 133.067C621.533 131.334 623.8 127.467 625.933 124.267C628.867 120 629.267 118.667 627.667 118.667C625.133 118.667 625 115.467 627.667 113.334C630.333 111.2 630.333 107.867 627.667 108.8C626.467 109.334 625.267 108.667 624.733 107.2C623.933 105.067 623.8 105.067 622.867 107.467C621.933 109.867 621.8 109.734 621.8 107.067C621.667 105.467 621 103.734 620.333 103.334C619.533 102.8 619.267 102 619.667 101.334C620.067 100.667 619.667 99.7335 618.867 99.3335C618.2 98.8002 617.8 97.6002 618.2 96.5335C618.6 95.4668 618.333 94.6668 617.667 94.6668C616.867 94.6668 616.333 93.4668 616.333 92.0002C616.333 90.5335 615.667 89.3335 614.867 89.3335C613.8 89.3335 613.933 88.6668 615.133 87.2002C616.467 85.4668 616.467 84.9335 615.133 84.0002C613.933 83.3335 613.933 82.8002 614.733 82.5335C615.533 82.2668 616.333 79.6002 616.467 76.6668C616.6 73.7335 617.4 70.5335 618.2 69.4668C619.4 68.0002 619.133 67.7335 616.867 68.5335C614.467 69.2002 614.067 68.8002 614.067 65.3335C614.067 60.0002 616.867 60.1335 624.467 65.6002ZM560.333 81.3335C560.333 82.0002 559.667 82.6668 558.867 82.6668C558.2 82.6668 557.933 82.0002 558.333 81.3335C558.733 80.5335 559.4 80.0002 559.8 80.0002C560.067 80.0002 560.333 80.5335 560.333 81.3335ZM459.267 87.3335C459 89.2002 458.067 90.6668 457.4 90.6668C456.733 90.6668 456.467 90.2668 456.733 89.6002C457 89.0668 457.667 87.6002 458.067 86.2668C459.267 82.9335 460.067 83.4668 459.267 87.3335ZM537 112C535.667 113.467 534.333 114.4 533.933 114C533.533 113.6 534.333 112.134 535.667 110.667C537 109.2 538.333 108.267 538.733 108.667C539.133 109.067 538.333 110.534 537 112ZM524.867 119.334C523.533 120.267 521.933 120.8 521.4 120.534C519.8 119.6 521.667 116.134 524.067 115.734C527.267 115.067 527.667 117.2 524.867 119.334ZM694.467 137.2C699.933 144.8 706.2 154.267 708.467 158.267C712.867 166 714.733 176 711.667 176C709.933 176 708.067 182 707.8 188.4C707.667 190.534 706.6 192.8 705.4 193.467C704.067 194.267 703 195.734 703 196.8C703 197.867 702.067 199.067 701 199.467C699.933 200 699.4 200.8 699.8 201.467C700.2 202.134 699.933 202.667 699.133 202.667C698.467 202.667 695.533 207.2 692.6 212.667C687.667 222.134 687 224.8 690.733 221.067C691.667 220.134 692.333 220 692.333 220.8C692.333 221.6 691.667 222.8 690.867 223.6C689.667 224.8 690.067 224.934 692.467 224.4C695.667 223.6 695.667 223.6 693.133 226.534C691.667 228.134 689.8 229.2 689 228.8C688.2 228.534 686.733 229.467 685.933 230.8C684.867 232.4 684.867 233.334 685.667 233.334C687.667 233.334 687.267 236.8 685 238.667C683.933 239.6 683 240.934 683 241.867C683 242.667 684.467 241.6 686.333 239.6C688.2 237.6 690.067 236 690.467 236C691.8 236 688.467 240.8 684.467 244.534C682.2 246.8 680.333 249.067 680.333 249.734C680.333 250.267 681.267 249.867 682.467 248.8C684.733 246.4 687 246 687 248C687 249.6 682.6 252 679.4 252C678.067 252 673.667 254.934 669.667 258.667C665.667 262.267 661.267 265.6 660.067 266C658.733 266.534 657.667 267.467 657.667 268.134C657.667 268.8 657 269.334 656.067 269.334C655.267 269.334 653.267 270.4 651.8 271.867C647.933 275.2 625.667 286.667 622.867 286.667C621.533 286.667 620.067 287.2 619.667 288C618.333 290.134 616.333 289.6 617.133 287.334C617.667 286.134 617.133 285.334 615.933 285.334C614.733 285.334 612.867 284.934 611.533 284.4C610.067 283.867 609.533 284 610.067 284.934C610.6 285.734 610.067 286.667 609.133 287.067C608.067 287.467 606.867 287.2 606.467 286.267C606.067 285.067 605.533 285.067 604.733 286.134C604.2 287.067 599.8 288.667 595 290C590.2 291.2 583 293.2 579 294.267C575 295.467 570.333 296.534 568.6 296.8C566.867 296.934 562.2 298.4 558.2 300.134C554.2 301.734 550.6 302.667 550.2 302.267C549.267 301.334 562.6 294 569 292C571.933 291.067 575 289.734 575.933 289.067C576.733 288.4 579.267 287.734 581.533 287.734C583.8 287.6 585.667 287.2 585.667 286.8C585.667 286.4 588.2 285.867 591.4 285.867C594.467 285.734 601.533 284.4 607 282.8C619.267 279.467 622.2 279.2 621.133 282.134C620.733 283.334 620.867 283.734 621.8 283.2C622.6 282.8 623 281.334 622.6 280.134C622.2 278.534 624.467 276.8 631.533 273.334C636.733 270.8 641.533 267.867 642.067 266.934C642.6 266.134 643.8 265.334 644.467 265.334C645.267 265.334 645.533 265.867 645.133 266.534C644.6 267.2 645.667 267.467 647.133 267.067C648.733 266.534 650.333 265.2 650.6 263.867C651 262.534 652.067 261.867 653 262.134C653.933 262.534 655 261.867 655.4 260.8C655.933 259.6 656.867 258.667 657.667 258.667C659 258.667 674.467 247.334 675.667 245.334C676.067 244.8 675.933 243.334 675.533 242.134C674.867 240.534 673.4 241.334 668.6 245.867C658.333 255.6 654.333 258.267 635.667 267.734C628.467 271.467 614.067 276.934 608.333 278.134C602.333 279.467 601.667 279.6 601.4 280C600.733 280.4 597.267 280.934 589.533 281.734C585.4 282.267 580.333 283.2 578.2 284C575.4 285.067 574.2 285.067 573.8 283.867C573.533 282.8 573 282.934 572.2 284.134C571.4 285.467 571 285.6 571 284.267C571 282 566.333 282.267 564.333 284.667C563.4 285.734 561.933 286.667 561.133 286.667C560.2 286.667 557.4 287.867 554.6 289.2C547 293.067 543.4 293.6 542.467 291.2C542.067 290 542.067 288.4 542.6 287.6C543.133 286.667 542.733 286.667 541.4 287.734C539.667 289.067 539.133 289.067 538.6 287.734C538.333 286.8 537.533 286.534 536.867 287.067C536.2 287.734 536.733 288.8 538.067 289.467C540.467 290.934 541.267 296 538.867 296C538.2 296 537.933 296.534 538.333 297.334C538.733 298 538.467 298.667 537.667 298.667C536.6 298.667 536.333 297.467 536.867 295.467C537.533 292.667 537.267 292.267 535 292.667C531.667 293.334 530.2 291.2 533.133 290.134C534.333 289.6 535 288.934 534.6 288.534C533.8 287.734 536.733 284 538.2 284C538.6 284 540.333 282.667 541.933 281.067C543.667 279.334 545 278.8 545.4 279.734C545.667 280.534 546.733 280.8 547.8 280.4C548.733 280 549.267 279.2 548.867 278.534C548.467 277.867 549 276.534 549.933 275.6C551.667 274 565.4 268 567.533 268C568.2 268 572.067 266.4 576.067 264.534C586.6 259.6 590.733 255.2 583.4 256.8C580.467 257.334 580.067 257.2 581.667 256C584.067 254.267 595.933 248 597 248C599 248 597.267 250.4 594.733 251.067C593.133 251.6 592.2 252.267 592.6 252.667C594.2 254.267 600.067 251.734 600.733 249.2C601.133 247.734 601.933 246.667 602.6 246.934C604.6 247.467 609.667 245.2 609.667 243.734C609.667 243.067 610.6 242.8 611.667 243.2C613.133 243.734 614.2 242.8 615.267 240.267C616.067 238.267 616.867 237.334 617.267 238.4C617.667 239.2 618.467 239.734 619 239.334C619.667 238.934 619.8 237.6 619.4 236.4C618.733 234.667 619.133 234.4 621.4 234.934C623 235.467 624.067 235.334 623.667 234.8C623.4 234.267 625.667 232.534 628.733 230.934C631.8 229.334 633.8 228 633.133 228C632.333 228 633.533 226.267 635.533 224.134C638.6 220.934 640.067 220.267 643.133 220.934C645.667 221.467 647 221.067 647 220.134C647 219.067 645.933 218.8 644.2 219.334C642.2 220 641.533 219.734 641.933 218.534C642.333 217.467 643.8 216.534 645.4 216.267C647 216 648.333 215.2 648.333 214.534C648.333 213.867 649 213.334 649.8 213.334C650.6 213.334 650.867 214.534 650.333 216.134C649.667 218.134 649.8 218.667 650.867 218.134C651.667 217.6 652.333 216.667 652.333 216C652.333 214.934 660.333 202 663 199.067C664.867 196.934 666.733 191.6 667.667 186.267C668.2 184 669 181.467 669.667 180.667C670.867 179.2 671 178.667 671 174.934C671 173.2 671.267 173.067 672.2 174.534C674.333 177.867 675.267 173.467 674.333 164.267C673.8 159.334 673.133 154.934 672.867 154.4C671.933 152.934 665.667 156.534 664.867 159.2C664.333 160.934 663.667 161.2 662.6 160.134C661.4 158.934 661.4 158.267 662.467 157.6C663.267 157.067 664.333 155.334 664.867 153.867C665.933 150.267 669.667 146.134 672.467 145.067C675.533 143.867 677 137.2 674.733 135.334C672.467 133.734 672.067 119.734 674.333 120.4C675 120.667 675.533 122.267 675.267 123.734C675 125.334 675.533 126.667 676.2 126.667C677 126.667 677.8 125.867 677.8 124.934C677.933 124.134 678.467 125.067 679 127.334C680.067 131.334 680.067 131.334 680.2 126.267C680.2 123.467 679.8 121.467 679.133 121.867C677.8 122.8 676.067 119.334 677.267 118.134C678.733 116.667 684.333 122.934 694.467 137.2ZM517.933 122.934C517 123.867 516.333 124 516.333 123.2C516.333 121.334 517.933 119.734 518.867 120.667C519.133 121.067 518.733 122.134 517.933 122.934ZM861 125.334C897.933 134.534 918.333 154.8 917.4 181.734C917.267 186 916.733 189.734 916.2 190.134C915.667 190.4 914.733 193.6 914.333 197.067C912.467 211.2 904.333 227.2 889 246.534C854.067 290.8 804.733 330.934 733.667 372.8C721.533 380 700.6 392.267 687 400.267C655.267 418.934 582.6 456 568.733 460.667C561.8 462.934 561.667 462.934 547.533 469.2C542.333 471.467 537.267 473.334 536.2 473.334C532.733 473.334 524.067 476.934 523 478.8C522.333 479.734 521.4 480.134 520.867 479.734C520.467 479.2 521 477.867 522.2 476.667C524.6 474.134 525 471.2 523 470C522.333 469.6 521.667 469.734 521.667 470.534C521.667 472.534 512.467 474 510.6 472.134C509.533 471.067 509.667 470.667 511.4 470.667C512.6 470.667 513.667 470 513.667 469.334C513.667 468.534 514.6 468 515.667 468C516.733 468 517.667 467.467 517.667 466.667C517.667 466 519.933 464.8 522.733 464C529 462.267 531.933 460.4 530.467 459.067C529.8 458.534 529 458.8 528.733 459.6C528.333 460.534 527.133 461.334 525.8 461.334C524.6 461.334 521.267 462.534 518.333 464C515.4 465.467 511.4 466.667 509.4 466.667C507.4 466.667 505.4 467.2 505 468C504.6 468.667 503.133 469.334 501.933 469.334C500.733 469.334 497.933 470.267 495.933 471.334C493.8 472.4 486.6 475.2 479.933 477.467C473.133 479.734 464.6 483.067 460.733 484.8C457 486.534 453 488 451.8 488C450.733 488 445.8 489.467 440.733 491.2C403.667 504.267 361.933 513.467 287 525.2C214.2 536.667 166.6 538.267 122.067 530.667C104.733 527.734 90.0667 524.267 87 522.534C83.8 520.667 87.6667 521.2 94.0667 523.334C102.333 526.134 131.4 530.534 142.333 530.667C162.867 530.934 209.533 529.6 211 528.667C211.8 528.134 216.333 527.467 221.133 527.2C225.8 526.934 230.867 526.134 232.2 525.334C234.067 524.4 235 524.534 235.4 525.734C235.933 526.934 236.467 526.8 237.533 525.334C238.467 524 239 523.867 239 524.934C239 526.134 239.933 526.267 242.467 525.334C244.333 524.534 247.267 524 249.133 524C250.867 524 252.333 523.334 252.333 522.534C252.333 521.467 250.333 521.2 246.333 521.6C243 522 239.933 521.734 239.533 521.067C239.133 520.4 245 520 254.333 520.267C266.867 520.534 270.067 520.267 271 518.667C272.2 516.934 272.333 516.934 272.333 518.667C272.333 519.867 272.733 520.134 273.4 519.334C273.933 518.534 276.467 518 279 517.867C291.933 517.734 318.6 515.334 339 512.534C340.867 512.267 345.533 511.734 349.4 511.334C353.267 511.067 360.733 509.2 366.067 507.467C371.4 505.734 377.8 503.867 380.333 503.334C382.867 502.8 388.467 501.334 392.733 499.867C397 498.4 401 497.6 401.8 498C402.467 498.534 403 498.134 403 497.334C403 496.4 403.8 496 404.733 496.4C405.533 496.667 408.467 496.134 411.267 495.2C413.933 494.267 416.467 493.867 416.867 494.267C417.267 494.8 417.667 494.4 417.667 493.467C417.667 492.4 418.6 492.134 420.467 492.667C422.2 493.334 423 493.067 422.467 492.267C422.067 491.6 422.6 490.667 423.667 490.134C424.867 489.734 425.667 490.134 425.667 491.467C425.667 492.934 426.6 492.4 428.867 490.134C432.067 486.534 434.6 485.467 432.867 488.267C432.067 489.6 432.467 489.467 433.933 488.267C435.667 486.934 436.867 486.8 438.867 488C441.133 489.2 441.533 489.067 440.867 487.334C440.333 486 440.867 485.334 442.333 485.334C443.533 485.334 444.067 485.867 443.667 486.667C442.6 488.267 444.333 488.4 446.867 486.8C448.067 486 448.2 485.334 447.133 484.8C446.333 484.267 445.667 483.2 445.667 482.534C445.667 481.734 446.333 481.6 447 482C447.8 482.4 449.267 481.867 450.467 480.8C453.267 477.867 455.8 478 453.533 480.934C452.467 482.134 452.333 482.8 453 482.4C453.8 482.134 455.533 481.334 457 480.8C459 480 459.267 479.6 457.8 478.667C456.467 477.867 457.533 477.067 461.8 476C465 475.067 469 473.867 470.733 473.2C472.467 472.534 474.733 472 475.933 472C477.8 472 477.8 472.267 475.533 474C473 476 473 476 475.667 475.067C477.133 474.534 479 473.467 479.667 472.534C481.533 470.267 487 468.8 487 470.534C487 471.334 487.533 472 488.333 472C489 472 489.267 471.067 488.733 469.867C488.067 468 488.6 467.734 491.533 468.267C493.667 468.667 495.933 468.267 496.867 467.2C497.933 466.267 499.133 465.867 499.533 466.4C500.067 466.8 501 466.4 501.533 465.467C502.2 464.534 504.2 463.6 506.2 463.6C508.067 463.467 509.667 462.934 509.667 462.267C509.667 461.734 510.867 461.334 512.2 461.334C513.667 461.334 515.267 460.667 515.667 459.867C516.2 459.2 517.267 458.8 518.067 459.067C519 459.334 520.333 458.667 521.267 457.467C522.2 456.267 523 456 523 456.8C523 458.934 531.267 456 535 452.667C536.733 451.067 539.8 450 543 450C546.6 450 547.8 449.6 547.4 448.267C547 447.334 547.133 446.667 547.8 446.8C548.467 446.934 550.2 446.667 551.667 446.134C562.333 442 564.6 441.334 565.667 442C566.333 442.4 567.667 441.867 568.6 440.8C569.667 439.734 573.667 437.867 577.4 436.534C581.267 435.2 584.333 433.6 584.333 433.067C584.333 432.4 585.267 432 586.333 432C587.4 432 588.333 431.467 588.333 430.8C588.333 430.134 589.4 429.867 590.733 430.134C591.933 430.534 594.2 429.867 595.667 428.667C598.2 426.534 598.2 426.534 595.267 428C593.533 428.934 591.8 429.2 591.533 428.934C591.133 428.534 594.067 426.8 597.933 424.934C601.8 423.067 612.067 418.267 620.733 414.134C629.267 410 636.733 406.667 637.133 406.667C638.6 406.667 647.533 402.267 653 398.8C655.933 397.067 664.333 392.4 671.8 388.534C679.133 384.8 692.333 377.467 700.867 372.134C709.533 366.934 717 362.667 717.4 362.667C717.933 362.667 720.2 361.067 722.333 359.2C724.6 357.334 727.667 355.2 729.4 354.534C731.133 353.867 733.133 351.6 733.8 349.334C734.6 347.2 735.8 345.334 736.467 345.334C737.133 345.334 737.667 344.267 737.8 342.934C737.8 341.6 738.2 341.334 738.6 342.267C739.4 344.534 741.8 344.534 741.4 342.4C741.133 341.467 741.667 340.8 742.6 340.667C743.4 340.667 744.6 340.267 745.133 339.6C745.667 339.067 747.267 338.667 748.6 338.667C749.933 338.667 751 338 751 337.334C751 336.534 750.333 336 749.533 336C748.867 336 748.467 335.467 749 334.667C749.4 334 750.6 333.734 751.667 334.267C752.733 334.667 753.667 334.4 753.667 333.6C753.667 330 745.267 332.534 736.333 338.667C734.467 340 731.533 341.467 729.667 341.867C726.333 342.667 726.333 342.667 729.4 341.2C731 340.267 732.333 339.067 732.333 338.4C732.333 337.867 733.267 337.334 734.333 337.334C735.4 337.334 736.333 336.8 736.333 336.267C736.333 335.6 738.867 333.734 742.067 332C745.133 330.267 751 326.534 755 323.734C759 320.934 762.867 318.667 763.4 318.667C764.067 318.667 765.4 317.734 766.6 316.667C767.667 315.6 769.133 315.067 769.933 315.467C770.867 316.134 770.6 317.067 769.133 318.134C767.667 319.067 767.133 320.534 767.8 321.467C768.333 322.534 768.2 322.8 767.267 322.134C766.333 321.6 765.667 321.734 765.667 322.534C765.667 323.2 766.467 324.134 767.4 324.4C768.333 324.8 768.067 325.2 766.733 325.2C765.4 325.334 764.333 324.8 764.333 324.134C764.333 323.467 762.867 323.6 761 324.4C759.133 325.334 757.667 326.267 757.667 326.667C757.667 328.267 764.2 330.134 766.733 329.2C768.333 328.534 771.4 328.4 773.667 328.667C778.333 329.2 785.667 327.067 787.667 324.534C788.467 323.6 791.267 322.267 793.933 321.6C796.6 320.8 799.667 319.6 800.6 318.8C803 316.8 815.8 307.2 825.533 300.134C830.067 296.934 833.667 293.867 833.667 293.2C833.667 292.534 835.267 290.4 837.4 288.4C839.4 286.267 841.933 283.467 843 282C845 279.467 845 279.467 841.4 281.734C839.267 283.067 837.667 283.467 837.667 282.667C837.667 282 838.333 281.334 839.133 281.334C839.8 281.334 840.333 280.267 840.2 278.934C839.8 274.934 840.333 273.867 841.667 276C842.6 277.6 843.4 277.2 846.2 274C848.333 271.6 849.4 269.067 848.867 267.734C848.2 265.334 849.267 264.8 854.067 265.2C855.267 265.334 856.333 264.8 856.333 264.134C856.333 263.334 855.533 262.667 854.733 262.667C853.8 262.667 854.733 261.067 856.867 259.2C859 257.2 861.133 256.4 861.533 257.067C861.933 257.867 864.2 256.8 866.6 254.667C869.667 251.867 870.733 249.734 870.733 246.8C870.6 244.534 870.467 242.667 870.333 242.667C868.867 242.667 859.133 247.334 857.4 249.067C856.067 250.134 855 250.4 855 249.734C855 248.934 855.933 247.6 857 246.667C858.2 245.734 858.733 244.667 858.467 244.267C858.067 244 858.867 242.134 860.333 240.267C861.8 238.534 862.6 236.534 862.2 235.867C861.8 235.2 862.067 234.667 862.867 234.667C863.667 234.667 863.933 233.734 863.533 232.667C863 231.6 863.667 230.4 864.867 229.867C866.067 229.467 867 228.267 867 227.334C867 226.4 867.533 225.334 868.2 225.067C868.867 224.8 870.6 222.534 872.2 220C874.867 215.6 875.133 215.734 875.533 221.334C875.667 222.4 876.467 223.334 877.267 223.334C880.067 223.334 888.333 214.534 891.533 208.134C895.533 200.267 899.4 184.8 898.333 180.934C897.667 178.667 897.8 178.4 898.867 180C899.933 181.6 900.333 181.067 900.333 177.467C900.333 173.2 900.2 173.067 898.6 175.334C896.867 177.467 896.6 177.334 895.933 172.534C894.867 166.267 885.267 155.734 877.4 152.267C874.6 151.067 872.333 149.6 872.333 148.934C872.333 148.4 871.8 148.134 871.267 148.534C869 149.867 845.667 140.134 845.667 137.867C845.667 136.934 852.867 138.934 854.2 140.134C855 140.8 857.267 141.334 859.267 141.334C863.533 141.334 873.667 144.934 875.667 147.2C876.467 148.134 878.733 148.934 880.733 149.067C882.733 149.2 886.2 150.534 888.2 152.134C890.333 153.734 892.733 154.534 893.533 154.134C894.333 153.6 895 154 895 155.067C895 156.134 895.933 157.334 897 157.867C899.8 158.934 899.533 156.667 895.8 150.934C891.667 144.267 882.6 136.267 878.067 135.2C875.933 134.8 872.2 132.934 869.667 131.334C865.133 128.4 861.533 127.467 849.667 126C846.333 125.6 841.533 124.934 839 124.4C830.333 122.8 775.8 124 773.933 125.867C773.533 126.267 773.933 126.667 774.733 126.667C775.533 126.667 777.8 128.134 779.933 129.867C782.067 131.6 785.533 133.334 787.667 133.6C789.933 133.867 782.733 134.267 771.667 134.267C760.733 134.267 748.333 134.4 744.067 134.4C739.933 134.534 736.2 135.067 735.8 135.867C735.267 136.667 734.067 136.934 733.133 136.534C732.067 136.134 730.867 136.4 730.467 137.2C729.267 138.934 734.467 140.4 738.733 139.467C741.4 138.8 741.8 138.934 740.333 140C738.733 141.067 738.867 141.334 741.4 141.334C743 141.334 744.333 140.667 744.333 140C744.333 139.067 745.4 139.2 747.4 140.267C750.067 141.734 749.267 142 740.333 142.934C734.867 143.467 729.4 143.6 728.333 143.2C725.667 142.4 717 129.467 718.333 128.267C718.867 127.734 719.667 128.134 720.067 129.2C720.467 130.4 721 130.534 721.533 129.6C722.467 128 726.067 127.6 755.667 125.2C765.933 124.4 779.4 123.2 785.667 122.667C791.933 122 808.733 121.734 823 122C844.333 122.4 851.133 122.934 861 125.334ZM607 139.2C607 139.6 606.467 140.267 605.667 140.667C605 141.067 604.333 140.8 604.333 140.134C604.333 139.334 605 138.667 605.667 138.667C606.467 138.667 607 138.934 607 139.2ZM664.333 140C664.333 140.667 663.8 141.334 663 141.334C662.333 141.334 661.667 140.667 661.667 140C661.667 139.2 662.333 138.667 663 138.667C663.8 138.667 664.333 139.2 664.333 140ZM675 139.2C675 139.467 674.067 140.134 672.867 140.534C671.8 140.934 671.267 140.8 671.667 140C672.467 138.667 675 138.134 675 139.2ZM600.2 146.8C598.067 148.134 597.133 147.334 598.333 145.467C598.733 144.667 599.8 144.4 600.6 144.8C601.4 145.334 601.267 146 600.2 146.8ZM594.2 147.2C593.8 148.267 592.467 149.467 591.267 150C589.533 150.667 589.533 150.267 591.667 148C594.467 144.8 595.133 144.667 594.2 147.2ZM584.333 161.334C581.667 163.067 579.933 163.067 581 161.334C581.4 160.534 582.867 160 584.067 160C586.067 160 586.067 160.267 584.333 161.334ZM656.333 170.4C656.333 170.934 655.133 172.134 653.667 173.067C651.133 174.667 651 174.534 652.6 172C654.333 169.334 656.333 168.4 656.333 170.4ZM884.333 173.6C884.333 174.4 883.4 174.267 882.333 173.334C881.267 172.4 880.333 171.067 880.333 170.4C880.333 169.6 881.267 169.734 882.333 170.667C883.4 171.6 884.333 172.934 884.333 173.6ZM770.2 172C843.267 178.134 850.467 207.734 791.133 259.6C785 264.934 779.533 268.934 778.867 268.534C778.2 268.134 777.667 266.4 777.667 264.667C777.667 262.934 775.667 253.467 773.133 243.734C768.333 225.067 760.467 204.267 750.6 184.134C747 176.667 745.267 171.867 746.2 171.467C748.6 170.534 753.267 170.667 770.2 172ZM647.667 174.667C648.067 175.334 647.8 176 647.133 176C646.333 176 645.667 175.334 645.667 174.667C645.667 173.867 645.933 173.334 646.2 173.334C646.6 173.334 647.267 173.867 647.667 174.667ZM512.333 185.334C512.333 186 511.4 186.667 510.333 186.667C509.267 186.667 508.333 187.334 508.333 188C508.333 188.8 509.8 189.067 511.667 188.534C515.267 187.6 516.067 189.467 513.267 191.734C512.467 192.534 509.933 193.6 507.8 194.134C505.667 194.667 502.867 196.134 501.4 197.6C500.067 198.934 498.2 199.734 497.533 199.2C496.733 198.667 495.667 198.934 495.133 199.6C494.067 201.2 477.533 208 474.733 208C473.4 208 472.333 207.334 472.333 206.667C472.333 205.867 473.133 205.334 474.2 205.334C475.933 205.334 487.667 199.467 490.467 197.2C491.267 196.534 492.333 196.4 492.733 196.934C493.267 197.334 493.667 197.067 493.667 196.267C493.667 195.334 494.6 194.667 495.667 194.667C496.733 194.667 497.667 194.134 497.667 193.334C497.667 192.667 499.267 191.6 501.4 191.2C503.4 190.667 506.333 188.8 507.933 187.067C511.133 183.734 512.333 183.2 512.333 185.334ZM614.2 194.534C611.8 196 609.667 197.867 609.267 198.934C609 199.867 608.333 200.267 607.8 199.867C606.6 198.667 613.667 192 616.2 192C617.4 192 616.6 193.067 614.2 194.534ZM467 210.134C461.667 212.4 461 212.4 463.267 210.267C465.533 208 468.6 206.8 470.2 207.734C470.867 208 469.4 209.2 467 210.134ZM640.333 210.667C640.333 211.334 639.667 212 638.867 212C638.2 212 637.933 211.334 638.333 210.667C638.733 209.867 639.4 209.334 639.8 209.334C640.067 209.334 640.333 209.867 640.333 210.667ZM636.733 213.867C637.267 215.2 636.867 215.6 635.667 215.067C634.6 214.667 634.067 213.867 634.467 213.2C635.4 211.6 635.933 211.734 636.733 213.867ZM457.667 213.867C457.667 214.267 457.133 214.934 456.333 215.334C455.667 215.734 455 215.467 455 214.8C455 214 455.667 213.334 456.333 213.334C457.133 213.334 457.667 213.6 457.667 213.867ZM880.333 217.334C880.333 220.534 878.2 221.867 877.133 219.334C876.733 218.267 877 217.067 877.8 216.667C878.467 216.134 878.6 215.2 878.2 214.4C877.667 213.467 877.933 213.334 878.733 213.867C879.667 214.4 880.333 216 880.333 217.334ZM583.8 218C581.133 220 579 220.534 579 219.334C579 218.667 584.067 216.267 585.667 216.134C586.067 216.134 585.133 216.934 583.8 218ZM458.333 218.667C454.733 220.267 452.6 220.267 455 218.667C456.067 218 457.933 217.467 459 217.467C460.333 217.467 460.067 217.867 458.333 218.667ZM634.333 220C633 221.467 631.133 222.667 630.2 222.667C628.867 222.667 629 222 630.6 220C631.933 218.534 633.8 217.334 634.867 217.334C636.333 217.334 636.2 217.867 634.333 220ZM564.2 221.867C565.533 223.467 565 223.734 561.4 223.734C559 223.867 554.867 224.534 552.333 225.2C544.333 227.734 544.6 226.667 553 223.467C563 219.6 562.333 219.6 564.2 221.867ZM627 226C627 226.667 611.4 237.334 610.333 237.334C609 237.334 610.467 234 611.8 234C613.267 233.867 619.4 230.534 620.333 229.334C620.867 228.534 625.8 225.467 626.733 225.334C626.867 225.334 627 225.6 627 226ZM534.467 230.134C531.533 231.2 528.467 231.867 527.8 231.467C527 231.2 528.467 230.4 531 229.6C537.933 227.6 540.467 227.867 534.467 230.134ZM696.6 230.934C695.667 231.867 695 232 695 231.2C695 229.334 696.6 227.734 697.533 228.667C697.8 229.067 697.4 230.134 696.6 230.934ZM690.2 232.667C689.667 233.734 688.867 234.267 688.2 233.867C686.333 232.8 686.867 230.667 689 230.667C690.2 230.667 690.6 231.467 690.2 232.667ZM523 233.734C521.133 234.534 519.267 235.867 518.733 236.667C518.067 237.467 517.667 237.2 517.667 235.867C517.667 232.934 518.867 232 522.867 232.134H526.333L523 233.734ZM515.4 239.6C514.6 239.867 512.6 241.334 510.867 242.8C509.267 244.134 507.533 245.334 507.133 245.334C506.6 245.334 504.2 247.2 501.667 249.467C499.133 251.867 496.867 253.067 496.6 252.267C496.333 251.2 491.133 251.734 486.333 253.467C485.667 253.734 484.867 253.467 484.6 252.8C484.333 251.867 500.733 243.867 502.067 244.267C503.4 244.667 513.667 238.267 513.667 237.067C513.667 236 514.2 236 515.4 237.2C516.6 238.534 516.6 239.2 515.4 239.6ZM607.667 239.867C607.267 240.667 606.2 240.934 605.4 240.534C604.6 240 604.733 239.334 605.8 238.534C607.933 237.2 608.867 238 607.667 239.867ZM842.2 242C840.2 244.667 838.333 246.4 837.933 246.134C837.4 245.467 838.067 244.267 842.333 239.067C845.533 235.067 845.4 237.867 842.2 242ZM489 242.667C489.4 243.334 489.267 244 488.467 244C487.667 244 487.4 244.8 487.667 245.6C488.333 247.334 482.733 250.667 479.533 250.667C478.733 250.667 477.133 251.6 476.2 252.8C474.6 254.8 474.733 254.934 477.4 254.134C482.333 252.534 480.733 255.734 475.133 258.4C472.333 259.867 469.133 261.6 468.2 262.4C459.133 270 451.8 274.8 450.2 274.134C447.667 273.2 447.8 269.334 450.333 269.334C451.4 269.334 452.2 268.8 452.067 268.134C451.667 266.8 457.667 260.934 462.733 257.6C464.733 256.4 466.867 254.667 467.4 253.734C467.933 252.8 469.4 252 470.6 252C471.8 252 472.333 251.6 471.933 251.067C471.4 250.667 474.333 248.8 478.333 246.934C482.333 245.067 485.667 243.067 485.667 242.534C485.667 240.934 487.933 241.067 489 242.667ZM530.467 244.667C528.467 245.734 525.533 246.667 524.2 246.667C522.733 246.667 520.067 247.6 518.2 248.8C513.4 252 512.733 250.134 517.533 246.667C519.8 245.067 521.667 244.134 521.667 244.667C521.667 245.067 522.733 244.8 524.067 244.134C525.267 243.334 528.2 242.667 530.333 242.667H534.333L530.467 244.667ZM711 251.067C708.467 254.134 705.8 257.067 704.867 257.734C703.933 258.267 703.4 260.134 703.533 261.867C703.8 264.134 703.4 264.934 702.2 264.4C700.6 263.734 699.667 265.467 700.2 268.267C700.2 268.934 699.8 269.334 699 269.334C698.333 269.334 697.667 270.267 697.667 271.334C697.667 272.4 696.733 273.334 695.667 273.334C694.6 273.334 693.667 274.134 693.667 274.934C693.667 276.667 685.4 286.667 683.933 286.667C683.133 286.667 670.867 294.667 669.667 296C668.067 297.734 653.533 306.667 652.333 306.667C651.667 306.667 651 307.6 651 308.667C651 309.734 649.8 310.667 648.333 310.667C646.867 310.667 645.667 310.4 645.667 310.134C645.667 309.467 659.667 298.134 672.867 288C676.2 285.467 679.267 282.267 679.667 280.934C680.2 279.734 681 278.667 681.533 278.667C683.667 278.667 692.867 270.534 696.867 264.934C699.133 261.867 701.667 258.534 702.6 257.6C703.533 256.534 705 254.667 705.667 253.2C706.467 251.867 707.933 250.667 708.867 250.667C709.8 250.667 711.4 249.2 712.333 247.334C713.267 245.467 714.467 244.267 714.733 244.667C715.133 245.067 713.4 247.867 711 251.067ZM409 252.8C401.533 259.067 399.667 258.4 406.867 251.867C410.067 249.067 413.133 246.934 413.533 247.467C413.933 247.867 411.933 250.267 409 252.8ZM505.667 253.867C505.667 254.267 505.133 254.934 504.333 255.334C503.667 255.734 503 255.467 503 254.8C503 254 503.667 253.334 504.333 253.334C505.133 253.334 505.667 253.6 505.667 253.867ZM695 262.667C695 263.334 693.667 264.667 692.067 265.467C689 267.067 689 267.067 691.533 264.134C694.333 261.067 695 260.667 695 262.667ZM821.667 264C821.667 264.667 821 265.334 820.2 265.334C819.533 265.334 819.267 264.667 819.667 264C820.067 263.2 820.733 262.667 821.133 262.667C821.4 262.667 821.667 263.2 821.667 264ZM684.333 270.667C684.333 271.334 683.667 272 682.867 272C682.2 272 681.933 271.334 682.333 270.667C682.733 269.867 683.4 269.334 683.8 269.334C684.067 269.334 684.333 269.867 684.333 270.667ZM811 273.2C811 273.867 809.4 275.334 807.4 276.667L803.667 278.934L807 275.6C810.733 271.734 811 271.6 811 273.2ZM437.667 278.534C437.667 279.2 436.733 280.134 435.533 280.534C433.667 281.2 433.533 281.067 435 279.334C436.867 277.067 437.667 276.8 437.667 278.534ZM432.333 280.534C432.333 280.934 431.8 281.6 431 282C430.333 282.4 429.667 282.134 429.667 281.467C429.667 280.667 430.333 280 431 280C431.8 280 432.333 280.267 432.333 280.534ZM788.733 292.934C777.8 303.334 773.8 306.667 772.333 306.667C771.533 306.667 769.667 307.867 768.067 309.334C764.867 312.267 763 312.8 763 310.667C763 309.867 763.667 309.334 764.467 309.334C765.267 309.334 767.533 308 769.533 306.267C771.533 304.667 775.267 301.867 777.667 300C780.2 298.134 784.733 294.4 787.933 291.6C796.2 284.534 796.733 285.467 788.733 292.934ZM614.6 290.134C614.2 290.534 613 290.667 612.067 290.267C611 289.867 611.4 289.467 612.867 289.467C614.333 289.334 615.133 289.734 614.6 290.134ZM683 293.334C683 294 681.933 294.667 680.733 294.667C678.733 294.667 678.6 294.4 680.333 293.334C682.867 291.734 683 291.734 683 293.334ZM529.4 295.2C528.467 296.267 527.267 296.8 526.733 296.534C526.333 296.267 525.667 296.667 525.4 297.6C525 298.534 524.467 298.267 523.933 296.8C523.4 295.6 523.533 294.8 524.2 295.334C524.867 295.734 525.8 295.467 526.333 294.667C526.733 294 528.067 293.334 529.133 293.334C530.733 293.334 530.733 293.6 529.4 295.2ZM375.4 298.267C374.467 298.534 373.667 299.734 373.667 300.8C373.667 301.867 373.133 302.667 372.333 302.667C371.667 302.667 371 302.134 371 301.6C371 300 373.933 297.334 375.667 297.467C376.333 297.467 376.2 297.867 375.4 298.267ZM520.867 300.134C520.6 300.667 518.867 301.334 517 301.6C514.333 302.134 513.933 301.867 515.133 300.534C516.467 298.8 521.933 298.4 520.867 300.134ZM366.067 307.334C364.067 309.2 360.6 311.734 358.333 312.934C356.2 314 353.8 315.867 353.267 316.8C352.733 317.867 351.533 318.667 350.867 318.667C350.067 318.667 347.667 319.867 345.4 321.467C343.267 323.067 341.267 324 340.867 323.6C340.467 323.334 345.133 319.867 351.267 316C357.267 312 363.667 307.067 365.533 304.934C367.4 302.8 369.133 301.6 369.4 302.4C369.667 303.334 368.2 305.467 366.067 307.334ZM777.667 312.134C777.667 312.934 776.733 314.4 775.533 315.6C774.067 317.2 773.133 317.334 771.933 316.134C770.867 315.067 771.133 314.134 773.133 312.667C776.2 310.4 777.667 310.134 777.667 312.134ZM785.4 323.6C782.333 326.534 775 327.334 775 324.667C775 322.267 775.133 322.267 779.533 324C782.333 324.934 783 324.8 783 323.334C783 322.267 784.067 321.334 785.267 321.334C787.4 321.334 787.4 321.467 785.4 323.6ZM741.933 328.267C741 329.2 740.333 329.334 740.333 328.534C740.333 326.667 741.933 325.067 742.867 326C743.133 326.4 742.733 327.467 741.933 328.267ZM328.333 332.534C328.333 332.934 327.8 333.6 327 334C326.333 334.4 325.667 334.134 325.667 333.467C325.667 332.667 326.333 332 327 332C327.8 332 328.333 332.267 328.333 332.534ZM731 334.667C729.933 335.334 728.467 336 727.667 336C727 336 727.267 335.334 728.333 334.667C729.4 334 731 333.334 731.667 333.334C732.467 333.334 732.067 334 731 334.667ZM725.667 343.334C725.667 344.4 702.867 359.067 693.667 363.867C688.867 366.4 683.533 369.467 681.667 370.667C679.8 372 676.2 374 673.667 375.2L669 377.467L673 374.134C675.267 372.267 677.667 370.667 678.6 370.667C679.4 370.667 681.4 369.067 683 366.934C684.6 364.934 686.867 363.334 688.067 363.2C689.4 363.067 693.667 360.934 697.667 358.4C701.667 355.867 707.667 352.267 710.733 350.534C713.933 348.8 718.467 346.267 720.733 345.067C725.4 342.4 725.667 342.4 725.667 343.334ZM713.667 345.2C713.667 345.867 711.933 347.067 709.667 347.867C704.6 349.6 704.333 347.734 709.4 345.734C711.4 344.934 713.133 344.267 713.4 344.134C713.533 344 713.667 344.534 713.667 345.2ZM167.667 387.334C174.6 413.867 183.667 436.934 195.933 459.2C199.133 464.934 201.533 469.867 201.4 470C200.333 470.934 160.733 467.734 152.867 466.134C128.733 461.067 116.333 450.267 116.333 434.4C116.333 425.867 119.267 418.667 127.667 406C134.733 395.334 159.8 368.934 162.067 369.734C162.733 369.867 165.267 377.867 167.667 387.334ZM661.933 381.467C658.067 383.6 654.067 385.2 653.267 384.934C652.333 384.667 655 382.8 659 380.934C669 376.134 670.6 376.4 661.933 381.467ZM651 385.867C651 386.8 634.6 394.667 634.067 394.134C633.4 393.467 636.733 391.467 644.333 387.867C649.133 385.467 651 384.934 651 385.867ZM593.667 413.067C593.667 414.4 585 418.667 582.333 418.667C581.4 418.667 580.333 419.334 580.067 420.134C579.8 420.934 578.467 421.067 576.467 420.267C573.533 419.2 574.2 418.8 582.467 415.734C593.133 411.734 593.667 411.6 593.667 413.067ZM536.333 430.667C536.333 431.334 535.667 432 534.867 432C534.2 432 533.933 431.334 534.333 430.667C534.733 429.867 535.4 429.334 535.8 429.334C536.067 429.334 536.333 429.867 536.333 430.667ZM46.4667 476.267C47.6667 478.667 50.2 482.4 52.2 484.534C54.0667 486.667 55 488 54.0667 487.6C53 486.934 53 487.467 54.0667 489.867C55 491.734 55.9333 492.534 56.4667 491.867C56.8667 491.2 58.2 490.934 59.4 491.467C60.6 491.867 61.4 492.8 61 493.334C60.6 494 62.0667 494.8 64.3333 495.334C66.4667 495.867 68.3333 496.8 68.3333 497.6C68.3333 498.4 67.5333 498.667 66.4667 498.267C65.1333 497.734 64.8667 498.267 65.2667 500.134C66.2 503.6 65.1333 503.334 60.7333 499.2C58.7333 497.334 55.4 494.4 53.5333 492.8C49.9333 489.734 43.9333 480.134 42.3333 474.934C41 470.4 43.9333 471.334 46.4667 476.267ZM72.2 502.134C73 501.6 73.6667 501.867 73.6667 502.534C73.6667 503.334 74.6 504 75.6667 504C76.7333 504 77.6667 504.667 77.6667 505.467C77.6667 506.134 78.2 506.534 78.8667 506.134C79.5333 505.734 80.4667 506.267 80.8667 507.467C81.4 508.667 82.0667 509.334 82.6 508.934C83.5333 507.867 87 510.4 87 512.134C87 513.334 83.9333 512.4 74.6 508C69.9333 505.867 68.3333 504.267 68.3333 502.134C68.3333 500 68.6 499.734 69.5333 501.2C70.2 502.134 71.4 502.534 72.2 502.134ZM99.1333 514C101.667 515.067 102.733 515.867 101.667 515.867C98.2 516 93.6667 514.4 93.6667 513.2C93.6667 511.6 93.9333 511.6 99.1333 514ZM74.3333 517.334C74.7333 518 73.8 518.134 72.3333 517.734C70.8667 517.334 69.4 516.534 69 516C68.6 515.334 69.5333 515.2 71 515.6C72.4667 516 73.9333 516.8 74.3333 517.334ZM135 519.734C140.467 520.134 162.6 520.667 183.933 520.667C205.4 520.667 223 521.067 223 521.6C223 522.134 221.933 522.534 220.733 522.534C219.4 522.534 205.8 522.934 190.333 523.334C161.267 524.267 138.2 522.934 121.667 519.334C115.4 518 114.6 517.6 119 518.134C122.333 518.4 129.533 519.2 135 519.734ZM83.9333 520.8C83.5333 521.2 82.3333 521.334 81.4 520.934C80.3333 520.534 80.7333 520.134 82.2 520.134C83.6667 520 84.4667 520.4 83.9333 520.8ZM235.4 520.934C234.467 521.2 232.867 521.2 232.067 520.934C231.133 520.534 231.8 520.267 233.667 520.267C235.533 520.267 236.2 520.534 235.4 520.934Z" fill="black"/>
<path d="M539 51.8669C539 53.4669 542.733 54.8002 543.667 53.4669C544.067 52.8002 543.4 51.8669 542.2 51.4669C539.4 50.4002 539 50.4002 539 51.8669Z" fill="black"/>
<path d="M556.333 72.0002C556.333 72.6668 557 73.3335 557.667 73.3335C558.467 73.3335 559 72.6668 559 72.0002C559 71.2002 558.467 70.6668 557.667 70.6668C557 70.6668 556.333 71.2002 556.333 72.0002Z" fill="black"/>
<path d="M439 116.133C439 116.8 439.667 117.067 440.333 116.667C441.133 116.267 441.667 115.6 441.667 115.2C441.667 114.933 441.133 114.667 440.333 114.667C439.667 114.667 439 115.333 439 116.133Z" fill="black"/>
<path d="M620.333 70.6667C620.333 71.3333 621 72 621.667 72C622.467 72 623 71.3333 623 70.6667C623 69.8667 622.467 69.3333 621.667 69.3333C621 69.3333 620.333 69.8667 620.333 70.6667Z" fill="black"/>
<path d="M623.667 75.6C624.2 76.9334 624.867 80 625.267 82.2667C625.667 84.6667 626.867 87.3334 627.8 88.1334C628.867 88.9334 629.667 90.6667 629.667 91.8667C629.667 93.0667 630.467 94.9334 631.4 95.8667C632.733 97.3334 632.733 97.6 631.4 96.8C630.467 96.2667 629.667 96.4 629.667 97.0667C629.667 97.8667 630.6 98.6667 631.667 99.2C632.733 99.6 633.533 99.4667 633.533 98.9334C633.4 98.4 633.533 97.3334 633.667 96.6667C635 89.6 631.667 74.5334 629.933 79.8667C629.533 81.0667 628.6 80.1334 627.533 77.4667C625.8 73.2 621.933 71.3334 623.667 75.6Z" fill="black"/>
<path d="M667.667 113.066C666.6 115.866 667.133 116 670.867 114.133C673.933 112.4 673.933 112.4 671.267 111.733C669.533 111.2 668.2 111.733 667.667 113.066Z" fill="black"/>
<path d="M651.8 159.6C651 161.467 651.133 161.6 652.467 160.4C653.4 159.467 653.8 158.4 653.4 158C653 157.6 652.2 158.267 651.8 159.6Z" fill="black"/>
<path d="M508.733 200.933C507.4 202.267 506.867 202.933 507.533 202.267C508.333 201.733 509.933 201.333 511.133 201.333C512.467 201.333 513.933 200.667 514.333 200C515.667 197.733 511.4 198.533 508.733 200.933Z" fill="black"/>
<path d="M410.333 264C409.933 264.667 410.2 265.333 410.867 265.333C411.667 265.333 412.333 264.667 412.333 264C412.333 263.2 412.067 262.667 411.8 262.667C411.4 262.667 410.733 263.2 410.333 264Z" fill="black"/>
<path d="M675.4 132C675.267 133.467 675.667 134.667 676.467 134.667C677.133 134.667 677.667 133.467 677.667 132C677.667 130.533 677.133 129.333 676.6 129.333C676.067 129.333 675.533 130.533 675.4 132Z" fill="black"/>
<path d="M674.333 149.333C673.933 150 674.2 150.667 674.867 150.667C675.667 150.667 676.333 150 676.333 149.333C676.333 148.533 676.067 148 675.8 148C675.4 148 674.733 148.533 674.333 149.333Z" fill="black"/>
<path d="M667.667 153.333C667.267 154 667.533 154.667 668.2 154.667C669 154.667 669.667 154 669.667 153.333C669.667 152.533 669.4 152 669.133 152C668.733 152 668.067 152.533 667.667 153.333Z" fill="black"/>
<path d="M684.333 226.667C683.267 227.334 682.733 228.134 683 228.534C683.4 228.8 684.867 228.267 686.2 227.2C689.133 225.2 687.533 224.667 684.333 226.667Z" fill="black"/>
<path d="M677.667 236C677.667 236.667 678.333 237.333 679 237.333C679.8 237.333 680.333 236.667 680.333 236C680.333 235.2 679.8 234.667 679 234.667C678.333 234.667 677.667 235.2 677.667 236Z" fill="black"/>
<path d="M725.667 134.667C725.667 135.333 726.867 136 728.2 136C729.667 136 731.267 135.333 731.667 134.667C732.2 133.867 731 133.333 729.133 133.333C727.267 133.333 725.667 133.867 725.667 134.667Z" fill="black"/>
<path d="M897.8 166.933C897.667 169.067 898.333 170.667 899 170.667C900.6 170.667 900.6 169.6 899 166C897.933 163.6 897.8 163.733 897.8 166.933Z" fill="black"/>
<path d="M903.133 176.8C903.133 178.267 903.533 178.667 903.933 177.6C904.333 176.667 904.2 175.467 903.8 175.067C903.4 174.533 903 175.333 903.133 176.8Z" fill="black"/>
<path d="M872.333 245.467C872.333 246.133 873 246.4 873.667 246C874.467 245.6 875 244.933 875 244.533C875 244.267 874.467 244 873.667 244C873 244 872.333 244.667 872.333 245.467Z" fill="black"/>
<path d="M753.133 329.2C752.733 329.866 753.8 331.333 755.533 332.533C758.2 334.133 758.867 334.266 759.4 332.8C760.733 329.466 754.867 326.266 753.133 329.2Z" fill="black"/>
<path d="M532.333 458.666C532.333 459.333 533.267 459.6 534.333 459.2C535.4 458.666 536.333 458.133 536.333 457.866C536.333 457.6 535.4 457.333 534.333 457.333C533.267 457.333 532.333 457.866 532.333 458.666Z" fill="black"/>
<path d="M526.2 468.667C524.867 469.733 524.333 470.667 525.133 470.667C525.8 470.667 527.667 469.733 529.133 468.667C530.467 467.6 531 466.667 530.2 466.667C529.533 466.667 527.667 467.6 526.2 468.667Z" fill="black"/>
<path d="M462.467 479.2C462.867 480.267 464.067 480.8 465.267 480.4C466.867 479.733 466.867 479.467 465.4 478.533C462.733 476.8 461.667 477.067 462.467 479.2Z" fill="black"/>
<path d="M196.067 531.6C197 532 198.2 531.867 198.6 531.467C199.133 531.067 198.333 530.667 196.867 530.8C195.4 530.8 195 531.2 196.067 531.6Z" fill="black"/>
<path d="M825.533 366.266C823.8 368.266 823.933 368.266 826.467 366.933C828.067 366.133 829.8 365.866 830.333 366.4C831 366.933 831 366.533 830.467 365.6C829.133 363.466 827.667 363.6 825.533 366.266Z" fill="black"/>
<path d="M807.667 377.867C806.2 378.933 805.8 379.867 806.6 380.4C807.4 380.933 808.733 380.4 809.667 379.333C811.933 376.533 810.733 375.6 807.667 377.867Z" fill="black"/>
<path d="M799.667 381.333C799.267 382 800.067 382.667 801.667 382.667C803.267 382.667 804.067 382 803.667 381.333C803.267 380.533 802.333 380 801.667 380C801 380 800.067 380.533 799.667 381.333Z" fill="black"/>
<path d="M142.6 578C144.867 579.067 148.333 580.133 150.333 580.533C152.333 580.933 155.267 582 156.867 582.933C158.333 584 161.133 584.667 163 584.533C164.867 584.4 166.6 584.667 167 585.2C168.467 587.067 188.333 590 200.333 590C215.133 590 221.933 589.2 223.4 587.333C224.2 586.4 224.733 586.533 225.133 587.467C225.933 589.2 230.333 588.4 242.067 584.133C247.933 582 250.333 581.6 252.333 582.667C254.067 583.6 255 583.6 255 582.8C255 582 256.067 581.867 257.4 582.267C259.4 583.067 259.4 582.933 257.933 580.933C253.533 575.6 238.333 574.933 229.133 579.6C226.067 581.2 221.933 581.467 208.467 580.8C179.267 579.467 147.8 577.467 143 576.667L138.333 576L142.6 578Z" fill="black"/>
</svg>
